<?xml version="1.0" standalone="no"?>
<!DOCTYPE svg PUBLIC "-//W3C//DTD SVG 20010904//EN"
 "http://www.w3.org/TR/2001/REC-SVG-20010904/DTD/svg10.dtd">
<svg version="1.0" xmlns="http://www.w3.org/2000/svg"
 width="1200.000000pt" height="1200.000000pt" viewBox="0 0 1200.000000 1200.000000"
 preserveAspectRatio="xMidYMid meet">
<metadata>
Created by potrace 1.14, written by Peter Selinger 2001-2017
</metadata>
<g transform="translate(0.000000,1200.000000) scale(0.100000,-0.100000)"
fill="#000000" stroke="none">
<path d="M507 11593 c164 -285 484 -780 510 -790 12 -5 480 73 490 81 2 1 -28
28 -65 59 -89 74 -323 311 -411 416 -39 47 -103 129 -143 183 l-73 98 -168 0
-168 0 28 -47z"/>
<path d="M3859 11563 c-305 -453 -746 -877 -1223 -1172 l-114 -71 -79 29
c-141 53 -206 82 -343 152 -74 38 -142 74 -150 79 -12 8 -3 21 50 71 36 33 61
58 55 56 -16 -7 -253 -145 -475 -275 -113 -67 -357 -210 -542 -319 -186 -109
-337 -201 -335 -204 3 -9 227 -209 233 -209 5 0 422 369 509 451 l31 29 75
-93 c42 -50 135 -158 207 -239 73 -82 132 -150 132 -153 0 -2 -38 -62 -84
-132 -149 -227 -240 -405 -352 -689 -228 -580 -339 -1286 -304 -1933 7 -124
15 -251 19 -281 l6 -55 493 -3 494 -2 -6 37 c-4 21 -13 108 -21 193 -80 865
60 1802 358 2383 l50 99 46 -7 c76 -11 261 -62 330 -90 200 -82 363 -188 514
-334 210 -203 366 -451 456 -722 l22 -66 193 5 c282 7 509 -22 761 -97 55 -16
101 -29 102 -28 5 5 -167 336 -227 437 -404 680 -995 1206 -1673 1490 l-87 37
93 81 c447 387 806 921 1018 1515 l39 107 -110 0 -109 0 -52 -77z"/>
<path d="M2420 11609 c-170 -29 -321 -168 -365 -334 -68 -261 107 -522 378
-565 269 -42 517 173 517 450 0 280 -255 496 -530 449z m147 -588 c43 -20 73
-62 73 -101 0 -39 -30 -81 -73 -101 -50 -22 -86 -24 -130 -5 -108 46 -109 164
-2 212 42 18 83 17 132 -5z"/>
<path d="M1760 10833 c-96 -20 -442 -88 -768 -153 -326 -65 -595 -120 -598
-123 -4 -4 98 -220 111 -235 1 -1 151 54 334 124 183 69 334 124 335 122 22
-31 104 -138 118 -154 l20 -22 231 135 c128 75 236 139 241 144 4 4 -17 24
-48 44 -30 21 -54 41 -51 45 2 3 57 26 122 50 65 24 122 47 128 51 5 5 7 9 5
8 -3 -1 -84 -17 -180 -36z"/>
<path d="M6600 10277 l0 -536 38 -7 c534 -93 1057 -304 1488 -600 l91 -62 264
366 c145 201 285 396 311 432 l47 67 -102 70 c-241 166 -560 340 -847 463
-357 152 -907 304 -1223 336 l-67 7 0 -536z"/>
<path d="M9503 8528 l-431 -311 53 -76 c298 -429 516 -965 609 -1503 l7 -38
536 0 536 0 -7 67 c-11 105 -53 323 -97 501 -133 541 -365 1065 -686 1544 -47
71 -86 128 -87 128 0 -1 -195 -141 -433 -312z"/>
<path d="M0 2700 l0 -2700 2700 0 2700 0 0 2700 0 2700 -2700 0 -2700 0 0
-2700z"/>
<path d="M7868 4477 c-38 -5 -68 -14 -68 -21 0 -26 668 -4087 673 -4092 6 -6
324 60 333 68 2 3 -70 461 -161 1018 -91 558 -165 1022 -165 1031 0 12 461
339 1403 995 771 538 1413 986 1426 996 23 17 -32 18 -1675 17 -1051 -1 -1725
-5 -1766 -12z"/>
</g>
</svg>
